<?xml version="1.0" encoding="UTF-8" standalone="no"?>
<svg
   xmlns:dc="http://purl.org/dc/elements/1.1/"
   xmlns:cc="http://creativecommons.org/ns#"
   xmlns:rdf="http://www.w3.org/1999/02/22-rdf-syntax-ns#"
   xmlns:svg="http://www.w3.org/2000/svg"
   xmlns="http://www.w3.org/2000/svg"
   xmlns:sodipodi="http://sodipodi.sourceforge.net/DTD/sodipodi-0.dtd"
   xmlns:inkscape="http://www.inkscape.org/namespaces/inkscape"
   viewBox="0 0 128 128"
   version="1.1"
   id="svg4"
   sodipodi:docname="Icon3.svg"
   inkscape:version="0.92.3 (2405546, 2018-03-11)"
   inkscape:export-filename="D:\repos\SideScroller\Resources\Icon175px.png"
   inkscape:export-xdpi="131.25"
   inkscape:export-ydpi="131.25">
  <metadata
     id="metadata10">
    <rdf:RDF>
      <cc:Work
         rdf:about="">
        <dc:format>image/svg+xml</dc:format>
        <dc:type
           rdf:resource="http://purl.org/dc/dcmitype/StillImage" />
        <dc:title></dc:title>
      </cc:Work>
    </rdf:RDF>
  </metadata>
  <defs
     id="defs8" />
  <sodipodi:namedview
     pagecolor="#ffffff"
     bordercolor="#666666"
     borderopacity="1"
     objecttolerance="10"
     gridtolerance="10"
     guidetolerance="10"
     inkscape:pageopacity="0"
     inkscape:pageshadow="2"
     inkscape:window-width="3840"
     inkscape:window-height="2066"
     id="namedview6"
     showgrid="false"
     inkscape:zoom="10.429825"
     inkscape:cx="51.33736"
     inkscape:cy="60.65375"
     inkscape:window-x="-11"
     inkscape:window-y="805"
     inkscape:window-maximized="1"
     inkscape:current-layer="svg4"
     showguides="true"
     inkscape:guide-bbox="true">
    <sodipodi:guide
       position="32.488328,-3.75005"
       orientation="0,1"
       id="guide3726"
       inkscape:locked="false" />
  </sodipodi:namedview>
  <path
     style="fill:#f6f6f6;stroke-width:1.07499218;fill-opacity:1"
     d="m 66.409668,1.0546678 c -6.203857,0 -11.575716,3.6730293 -13.874145,8.8629731 C 47.522345,8.7172414 42.088177,10.10664 38.314417,13.700768 h -5.658458 c 0.407991,-0.879284 0.66137,-1.810212 0.60611,-2.712819 C 33.163308,9.3748081 32.422302,8.0258781 31.390195,7.0339843 30.358087,6.0420906 28.954468,5.3299571 27.275926,5.2350439 25.597384,5.1401349 23.728976,5.8404106 22.487011,7.0339843 L 12.157435,16.961091 c -1.602117,1.538956 -1.602117,4.034878 0,5.573834 l 10.318868,9.916816 c 1.241964,1.193574 3.110372,1.893854 4.788914,1.79894 1.678542,-0.09491 3.082161,-0.807046 4.11427,-1.79894 1.032107,-0.991895 1.773113,-2.340825 1.871874,-3.953966 0.05503,-0.898813 -0.195118,-1.826268 -0.599685,-2.702527 h 1.147969 v 24.594443 c -1.131953,-0.590501 -2.206991,-1.282084 -3.433199,-1.691911 -3.235488,-1.088903 -6.831939,-0.587544 -9.614238,1.339944 -2.817114,1.922132 -4.496557,5.043817 -4.497639,8.36281 v 0.0021 37.221969 c -0.02849,10.433287 3.495126,20.591257 10.031876,28.920957 6e-4,7.7e-4 0.0015,0.001 0.0022,0.002 1.05353,1.3485 2.795701,2.29421 4.469797,2.42877 77.474848,0.10254 0.126912,0.18325 75.520148,0 2.44722,0.0291 3.19403,-0.0802 4.43712,-0.57637 1.52678,-0.73358 2.78686,-2.2798 3.22759,-3.93544 2.38558,-8.20955 2.62148,-17.78798 2.62148,-26.840027 V 61.901676 c 0,-9.695382 -9.88948,-15.971347 -18.817275,-13.864605 -2.69374,-6.076325 -9.547661,-9.660083 -16.272882,-8.679786 V 25.795248 h 1.143686 c -0.407991,0.879284 -0.66137,1.810212 -0.60611,2.712819 0.09876,1.613141 0.839767,2.962071 1.871874,3.953965 1.032108,0.991893 2.435727,1.704027 4.114269,1.79894 1.678542,0.09491 3.54695,-0.605367 4.788915,-1.79894 l 10.329583,-9.927107 c 1.60211,-1.538956 1.60211,-4.034878 0,-5.573834 L 92.797958,7.0442751 C 91.555994,5.8507014 89.687586,5.1504215 88.009044,5.2453347 c -1.678542,0.094909 -3.082161,0.8070467 -4.11427,1.7989404 -1.032107,0.9918948 -1.773113,2.3408248 -1.871874,3.9539659 -0.05503,0.898813 0.195118,1.826268 0.599685,2.702527 H 81.279719 C 80.323332,6.6136554 74.029277,1.0546678 66.409668,1.0546678 Z"
     id="path3721"
     inkscape:connector-curvature="0"
     sodipodi:nodetypes="scccsscsccscccccccccccccccccsscccccscsccscccccs" />
  <path
     d="m 105.7545,120.34774 c -0.88674,2.75654 3.48731,3.93574 4.22178,1.13815 2.19314,-7.49282 2.48921,-16.86147 2.48921,-25.86128 V 61.901676 c 0,-8.684133 -10.31611,-13.641214 -17.545075,-8.430734 v 0 c 0,-8.684133 -10.316107,-13.641213 -17.545075,-8.430733 V 21.855691 h 14.44179 l -5.033243,4.837134 c -2.068856,1.988247 1.034429,4.970619 3.103285,2.982372 L 100.21683,19.748008 89.898138,9.8313576 C 87.829281,7.8431103 84.725996,10.825482 86.794852,12.81373 l 5.022278,4.826595 H 77.37534 v -2.107684 c 0,-5.8202105 -4.909499,-10.5384126 -10.965672,-10.5384126 -6.056173,0 -10.965672,4.7182021 -10.965672,10.5384126 v 0 C 50.607307,12.009735 43.708872,12.956828 40.092055,17.640325 H 23.457131 l 5.033243,-4.837134 C 30.55923,10.814944 27.455945,7.8325719 25.387089,9.8208192 l -10.329663,9.9271888 10.318697,9.91665 c 2.068857,1.988248 5.172142,-0.994124 3.103286,-2.982372 l -5.022278,-4.826595 h 14.661103 c -0.146575,0.6937 -0.22005,1.399827 -0.219313,2.107684 v 34.460623 c -2.31798,-2.761142 -5.395219,-4.842234 -8.882194,-6.006897 -1.980955,-0.668514 -4.177064,-0.361383 -5.877601,0.821996 -1.745984,1.184389 -2.784611,3.109972 -2.78528,5.163825 V 95.62461 c -0.02874,9.5813 3.206317,18.90834 9.211164,26.55681 1.754507,2.24819 5.263522,-0.28103 3.509015,-2.52922 -5.433989,-6.91951 -8.36107,-15.35861 -8.333911,-24.02759 V 58.402922 c -0.01338,-0.704549 0.340505,-1.368912 0.943048,-1.770454 0.547662,-0.384023 1.256138,-0.486349 1.897062,-0.273999 6.190082,2.064479 10.334517,7.677017 10.318697,13.973941 v 16.861467 c 0,2.810244 4.386269,2.810244 4.386269,0 V 23.963375 c 0,-3.492127 2.945699,-6.323047 6.579403,-6.323047 3.633703,0 6.579403,2.83092 6.579403,6.323047 v 48.476718 c 0,2.810244 4.386269,2.810244 4.386269,0 V 15.532641 c 0,-3.492127 2.9457,-6.3230468 6.579403,-6.3230468 3.633704,0 6.579403,2.8309198 6.579403,6.3230468 v 56.907452 c 0,2.810244 4.386269,2.810244 4.386269,0 V 53.470942 c 0,-3.492126 2.9457,-6.323047 6.579403,-6.323047 3.633704,0 6.579403,2.830921 6.579403,6.323047 V 76.65546 c 0,2.810244 4.386269,2.810244 4.386269,0 V 61.901676 c 0,-3.492127 2.9457,-6.323047 6.579405,-6.323047 3.6337,0 6.5794,2.83092 6.5794,6.323047 V 95.62461 c 0,8.70473 -0.28511,17.72562 -2.32472,24.72313 z"
     id="path2"
     inkscape:connector-curvature="0"
     sodipodi:nodetypes="ccsscccccsscssccssccccsscsscccccccccccccccsssssssssssssssssssssc"
     style="fill:#424242;stroke-width:1.07499218;fill-opacity:1" />
</svg>
